
<svg xmlns="http://www.w3.org/2000/svg" version="1.1" xmlns:xlink="http://www.w3.org/1999/xlink" preserveAspectRatio="none" x="0px" y="0px" width="512px" height="512px" viewBox="0 0 512 512">
<defs>
<g id="Mask_6_MASK_0_FILL">
<path fill="#FFFFFF" stroke="none" d="
M 512 79.7
Q 512 46.7 488.65 23.3 465.3 0 432.3 0
L 79.7 0
Q 46.65 0 23.3 23.3 0 46.7 0 79.7
L 0 432.3
Q 0 465.35 23.3 488.65 46.65 512 79.7 512
L 432.3 512
Q 465.3 512 488.65 488.65 512 465.35 512 432.3
L 512 79.7 Z"/>
</g>

<g id="Layer6_0_FILL">
<path fill="#FFFFFF" stroke="none" d="
M 400.95 555.1
L 394.95 555.1 414.8 607.95 419.5 607.95 439.25 555.1 433.25 555.1 417.15 599.9 400.95 555.1
M 357.05 557.65
Q 351.75 561.1 348.8 567.25 345.85 573.35 345.85 580.95
L 345.85 583.05
Q 345.85 590.4 348.85 596.4 351.9 602.3 357.35 605.6 362.8 608.95 369.55 608.95 381.8 608.95 388.25 599.6
L 384.55 596.8
Q 381.65 600.6 378.05 602.3 374.45 604 369.75 604 361.95 604 356.85 598.05 351.65 592.05 351.65 583.05
L 351.65 581.9 389.35 581.9 389.35 578.65
Q 389.35 567.3 383.75 560.75 378.05 554.15 368.45 554.15 362.3 554.15 357.05 557.65
M 351.85 576.95
Q 352.85 568.8 357.35 563.95 361.85 559.1 368.45 559.1 375.1 559.1 379.2 563.9 383.3 568.7 383.55 576.3
L 383.55 576.95 351.85 576.95
M 119.95 542.35
Q 113.55 536.85 102.2 536.85
L 79.1 536.85 79.1 607.95 85.15 607.95 85.15 578.3 105.8 578.3 123 607.95 129.4 607.95 129.4 607.3 111.6 577.05
Q 118.35 575.05 122.35 569.8 126.35 564.6 126.35 557.8 126.35 547.9 119.95 542.35
M 85.15 541.95
L 102.1 541.95
Q 110.75 541.95 115.5 546.1 120.3 550.25 120.3 557.8 120.3 564.65 115.7 568.95 111.1 573.25 103.55 573.25
L 85.15 573.25 85.15 541.95
M 304.8 536.85
L 284.95 536.85 284.95 607.95 304.35 607.95
Q 313.45 607.95 320.5 603.95 327.45 599.95 331.3 592.55 335.2 585.2 335.2 575.65
L 335.2 569.15
Q 335.2 559.65 331.3 552.25 327.4 544.8 320.5 540.85 313.55 536.85 304.8 536.85
M 290.95 541.95
L 304.9 541.95
Q 315.85 542 322.55 549.35 329.2 556.75 329.2 569
L 329.2 575.3
Q 329.2 588 322.45 595.4 315.65 602.85 304.4 602.85
L 290.95 602.85 290.95 541.95
M 173.55 577.25
L 162.95 577.25
Q 151.45 577.25 145.1 581.75 138.65 586.2 138.65 593.95 138.65 600.45 143.35 604.7 148.05 608.95 155.65 608.95 161 608.95 165.8 606.8 170.5 604.6 173.6 600.6 173.85 605.45 174.7 607.95
L 180.95 607.95 180.95 607.35
Q 179.35 603.55 179.35 595.9
L 179.35 570.9
Q 179.2 563 174.15 558.6 169 554.15 160.15 554.15 151.6 554.15 145.75 558.8 139.9 563.35 139.9 569.65
L 145.75 569.7
Q 145.75 565.3 149.75 562.2 153.75 559.05 159.85 559.05 166.55 559.05 170.1 562.35 173.55 565.55 173.55 571.25
L 173.55 577.25
M 173.55 581.75
L 173.55 593.35
Q 171.45 598.1 166.85 600.9 162.2 603.75 156.35 603.75 151.1 603.75 147.8 600.8 144.5 597.9 144.5 593.45 144.5 588.05 149.4 584.95 154.35 581.85 163.1 581.75
L 173.55 581.75
M 200.25 555.1
L 194.6 555.1 194.6 607.95 200.5 607.95 200.5 571.7
Q 202.4 565.5 206.35 562.4 210.3 559.2 215.8 559.2 222.35 559.2 225.55 562.6 228.65 565.9 228.7 572.7
L 228.7 607.95 234.55 607.95 234.55 573
Q 235.05 567.3 239.4 563.3 243.75 559.3 250.05 559.2 256.85 559.2 259.85 562.65 262.85 566.05 262.9 573.15
L 262.9 607.95 268.75 607.95 268.75 572.7
Q 268.4 554.15 251.4 554.15 245.7 554.15 240.95 556.85 236.25 559.45 233.4 564.4 230 554.15 217.5 554.15 212.15 554.15 207.75 556.55 203.35 558.95 200.45 563.7
L 200.25 555.1
M 512 79.7
Q 512 46.7 488.65 23.3 465.3 0 432.3 0
L 79.7 0
Q 46.65 0 23.3 23.3 0 46.7 0 79.7
L 0 432.3
Q 0 465.35 23.3 488.65 24.5064453125 489.8564453125 25.75 491 48.3576171875 512 79.7 512
L 432.3 512
Q 463.594921875 512 486.2 491 487.4435546875 489.8564453125 488.65 488.65 512 465.35 512 432.3
L 512 79.7 Z"/>
</g>

<g id="Layer5_0_FILL">
<path fill="#F8B800" stroke="none" d="
M 125 250
L 125 387 250 512 250 387 250 250 250 125 125 250
M 512 79.7
Q 512 46.7 488.65 23.3 465.3 0 432.3 0
L 387 0 387 125 387 250 387 387 387 512 512 387 512 79.7 Z"/>

<path fill="#111111" stroke="none" d="
M 125 125
L 0 125 0 432.3
Q 0 465.35 23.3 488.65 24.5064453125 489.8564453125 25.75 491 48.3576171875 512 79.7 512
L 124.95 512 125 387 125 250 125 125 Z"/>

<path fill="#333333" stroke="none" d="
M 125 0
L 0 125 125 125 250 125 387 125 262 0 125 0 Z"/>

<path fill="#D69600" stroke="none" d="
M 387 250
L 387 125 250 125 250 250 387 250
M 250 387
L 250 512 387 512 387 387 250 387 Z"/>
</g>

<g id="Layer0_0_FILL">
<path fill="#FFFFFF" stroke="none" d="
M 400.95 555.1
L 394.95 555.1 414.8 607.95 419.5 607.95 439.25 555.1 433.25 555.1 417.15 599.9 400.95 555.1
M 357.05 557.65
Q 351.75 561.1 348.8 567.25 345.85 573.35 345.85 580.95
L 345.85 583.05
Q 345.85 590.4 348.85 596.4 351.9 602.3 357.35 605.6 362.8 608.95 369.55 608.95 381.8 608.95 388.25 599.6
L 384.55 596.8
Q 381.65 600.6 378.05 602.3 374.45 604 369.75 604 361.95 604 356.85 598.05 351.65 592.05 351.65 583.05
L 351.65 581.9 389.35 581.9 389.35 578.65
Q 389.35 567.3 383.75 560.75 378.05 554.15 368.45 554.15 362.3 554.15 357.05 557.65
M 351.85 576.95
Q 352.85 568.8 357.35 563.95 361.85 559.1 368.45 559.1 375.1 559.1 379.2 563.9 383.3 568.7 383.55 576.3
L 383.55 576.95 351.85 576.95
M 119.95 542.35
Q 113.55 536.85 102.2 536.85
L 79.1 536.85 79.1 607.95 85.15 607.95 85.15 578.3 105.8 578.3 123 607.95 129.4 607.95 129.4 607.3 111.6 577.05
Q 118.35 575.05 122.35 569.8 126.35 564.6 126.35 557.8 126.35 547.9 119.95 542.35
M 85.15 541.95
L 102.1 541.95
Q 110.75 541.95 115.5 546.1 120.3 550.25 120.3 557.8 120.3 564.65 115.7 568.95 111.1 573.25 103.55 573.25
L 85.15 573.25 85.15 541.95
M 320.5 540.85
Q 313.55 536.85 304.8 536.85
L 284.95 536.85 284.95 607.95 304.35 607.95
Q 313.45 607.95 320.5 603.95 327.45 599.95 331.3 592.55 335.2 585.2 335.2 575.65
L 335.2 569.15
Q 335.2 559.65 331.3 552.25 327.4 544.8 320.5 540.85
M 290.95 541.95
L 304.9 541.95
Q 315.85 542 322.55 549.35 329.2 556.75 329.2 569
L 329.2 575.3
Q 329.2 588 322.45 595.4 315.65 602.85 304.4 602.85
L 290.95 602.85 290.95 541.95
M 200.45 563.7
L 200.25 555.1 194.6 555.1 194.6 607.95 200.5 607.95 200.5 571.7
Q 202.4 565.5 206.35 562.4 210.3 559.2 215.8 559.2 222.35 559.2 225.55 562.6 228.65 565.9 228.7 572.7
L 228.7 607.95 234.55 607.95 234.55 573
Q 235.05 567.3 239.4 563.3 243.75 559.3 250.05 559.2 256.85 559.2 259.85 562.65 262.85 566.05 262.9 573.15
L 262.9 607.95 268.75 607.95 268.75 572.7
Q 268.4 554.15 251.4 554.15 245.7 554.15 240.95 556.85 236.25 559.45 233.4 564.4 230 554.15 217.5 554.15 212.15 554.15 207.75 556.55 203.35 558.95 200.45 563.7
M 179.35 570.9
Q 179.2 563 174.15 558.6 169 554.15 160.15 554.15 151.6 554.15 145.75 558.8 139.9 563.35 139.9 569.65
L 145.75 569.7
Q 145.75 565.3 149.75 562.2 153.75 559.05 159.85 559.05 166.55 559.05 170.1 562.35 173.55 565.55 173.55 571.25
L 173.55 577.25 162.95 577.25
Q 151.45 577.25 145.1 581.75 138.65 586.2 138.65 593.95 138.65 600.45 143.35 604.7 148.05 608.95 155.65 608.95 161 608.95 165.8 606.8 170.5 604.6 173.6 600.6 173.85 605.45 174.7 607.95
L 180.95 607.95 180.95 607.35
Q 179.35 603.55 179.35 595.9
L 179.35 570.9
M 163.1 581.75
L 173.55 581.75 173.55 593.35
Q 171.45 598.1 166.85 600.9 162.2 603.75 156.35 603.75 151.1 603.75 147.8 600.8 144.5 597.9 144.5 593.45 144.5 588.05 149.4 584.95 154.35 581.85 163.1 581.75 Z"/>
</g>
</defs>

<mask id="Mask_Mask_1">
<g transform="matrix( 1, 0, 0, 1, 0,0) ">
<use xlink:href="#Mask_6_MASK_0_FILL"/>
</g>
</mask>

<g mask="url(#Mask_Mask_1)">
<g transform="matrix( 1, 0, 0, 1, 0,0) ">
<use xlink:href="#Layer6_0_FILL"/>
</g>
</g>

<g mask="url(#Mask_Mask_1)">
<g transform="matrix( 1, 0, 0, 1, 0,0) ">
<use xlink:href="#Layer5_0_FILL"/>
</g>
</g>

<g transform="matrix( 1, 0, 0, 1, 0,0) ">
<use xlink:href="#Layer0_0_FILL"/>
</g>
</svg>
