<svg width="512" height="512" xmlns="http://www.w3.org/2000/svg" xmlns:xlink="http://www.w3.org/1999/xlink" preserveAspectRatio="none">
 <defs>
  <g id="Mask_6_MASK_0_FILL">
   <path id="svg_1" d="m512,79.7q0,-33 -23.35,-56.4q-23.35,-23.3 -56.35,-23.3l-352.6,0q-33.05,0 -56.4,23.3q-23.3,23.4 -23.3,56.4l0,352.6q0,33.05 23.3,56.35q23.35,23.35 56.4,23.35l352.6,0q33,0 56.35,-23.35q23.35,-23.3 23.35,-56.35l0,-352.6z" fill="#FFFFFF"/>
  </g>
  <g id="Layer6_0_FILL">
   <path id="svg_2" d="m400.95,555.1l-6,0l19.85,52.85l4.7,0l19.75,-52.85l-6,0l-16.1,44.8l-16.2,-44.8m-43.9,2.55q-5.3,3.45 -8.25,9.6q-2.95,6.1 -2.95,13.7l0,2.1q0,7.35 3,13.35q3.05,5.9 8.5,9.2q5.45,3.35 12.2,3.35q12.25,0 18.7,-9.35l-3.7,-2.8q-2.9,3.8 -6.5,5.5q-3.6,1.7 -8.3,1.7q-7.8,0 -12.9,-5.95q-5.2,-6 -5.2,-15l0,-1.15l37.7,0l0,-3.25q0,-11.35 -5.6,-17.9q-5.7,-6.6 -15.3,-6.6q-6.15,0 -11.4,3.5m-5.2,19.3q1,-8.15 5.5,-13q4.5,-4.85 11.1,-4.85q6.65,0 10.75,4.8q4.1,4.8 4.35,12.4l0,0.65l-31.7,0m-231.9,-34.6q-6.4,-5.5 -17.75,-5.5l-23.1,0l0,71.1l6.05,0l0,-29.65l20.65,0l17.2,29.65l6.4,0l0,-0.65l-17.8,-30.25q6.75,-2 10.75,-7.25q4,-5.2 4,-12q0,-9.9 -6.4,-15.45m-34.8,-0.4l16.95,0q8.65,0 13.4,4.15q4.8,4.15 4.8,11.7q0,6.85 -4.6,11.15q-4.6,4.3 -12.15,4.3l-18.4,0l0,-31.3m219.65,-5.1l-19.85,0l0,71.1l19.4,0q9.1,0 16.15,-4q6.95,-4 10.8,-11.4q3.9,-7.35 3.9,-16.9l0,-6.5q0,-9.5 -3.9,-16.9q-3.9,-7.45 -10.8,-11.4q-6.95,-4 -15.7,-4m-13.85,5.1l13.95,0q10.95,0.05 17.65,7.4q6.65,7.4 6.65,19.65l0,6.3q0,12.7 -6.75,20.1q-6.8,7.45 -18.05,7.45l-13.45,0l0,-60.9m-117.4,35.3l-10.6,0q-11.5,0 -17.85,4.5q-6.45,4.45 -6.45,12.2q0,6.5 4.7,10.75q4.7,4.25 12.3,4.25q5.35,0 10.15,-2.15q4.7,-2.2 7.8,-6.2q0.25,4.85 1.1,7.35l6.25,0l0,-0.6q-1.6,-3.8 -1.6,-11.45l0,-25q-0.15,-7.9 -5.2,-12.3q-5.15,-4.45 -14,-4.45q-8.55,0 -14.4,4.65q-5.85,4.55 -5.85,10.85l5.85,0.05q0,-4.4 4,-7.5q4,-3.15 10.1,-3.15q6.7,0 10.25,3.3q3.45,3.2 3.45,8.9l0,6m0,4.5l0,11.6q-2.1,4.75 -6.7,7.55q-4.65,2.85 -10.5,2.85q-5.25,0 -8.55,-2.95q-3.3,-2.9 -3.3,-7.35q0,-5.4 4.9,-8.5q4.95,-3.1 13.7,-3.2l10.45,0m26.7,-26.65l-5.65,0l0,52.85l5.9,0l0,-36.25q1.9,-6.2 5.85,-9.3q3.95,-3.2 9.45,-3.2q6.55,0 9.75,3.4q3.1,3.3 3.15,10.1l0,35.25l5.85,0l0,-34.95q0.5,-5.7 4.85,-9.7q4.35,-4 10.65,-4.1q6.8,0 9.8,3.45q3,3.4 3.05,10.5l0,34.8l5.85,0l0,-35.25q-0.35,-18.55 -17.35,-18.55q-5.7,0 -10.45,2.7q-4.7,2.6 -7.55,7.55q-3.4,-10.25 -15.9,-10.25q-5.35,0 -9.75,2.4q-4.4,2.4 -7.3,7.15l-0.2,-8.6m311.75,-475.4q0,-33 -23.35,-56.4q-23.35,-23.3 -56.35,-23.3l-352.6,0q-33.05,0 -56.4,23.3q-23.3,23.4 -23.3,56.4l0,352.6q0,33.05 23.3,56.35q1.20645,1.20645 2.45,2.35q22.60762,21 53.95,21l352.6,0q31.29492,0 53.9,-21q1.24355,-1.14355 2.45,-2.35q23.35,-23.3 23.35,-56.35l0,-352.6z" fill="#FFFFFF"/>
  </g>
  <g id="Layer5_0_FILL">
   <path id="svg_3" d="m125,250l0,137l125,125l0,-125l0,-137l0,-125l-125,125m387,-170.3q0,-33 -23.35,-56.4q-23.35,-23.3 -56.35,-23.3l-45.3,0l0,125l0,125l0,137l0,125l125,-125l0,-307.3z" fill="#F8B800"/>
   <path id="svg_4" d="m125,125l-125,0l0,307.3q0,33.05 23.3,56.35q1.20645,1.20645 2.45,2.35q22.60762,21 53.95,21l45.25,0l0.05,-125l0,-137l0,-125z" fill="#111111"/>
   <path id="svg_5" d="m125,0l-125,125l125,0l125,0l137,0l-125,-125l-137,0z" fill="#333333"/>
   <path id="svg_6" d="m387,250l0,-125l-137,0l0,125l137,0m-137,137l0,125l137,0l0,-125l-137,0z" fill="#D69600"/>
  </g>
  <g id="Layer0_0_FILL">
   <path id="svg_7" d="m400.95,555.1l-6,0l19.85,52.85l4.7,0l19.75,-52.85l-6,0l-16.1,44.8l-16.2,-44.8m-43.9,2.55q-5.3,3.45 -8.25,9.6q-2.95,6.1 -2.95,13.7l0,2.1q0,7.35 3,13.35q3.05,5.9 8.5,9.2q5.45,3.35 12.2,3.35q12.25,0 18.7,-9.35l-3.7,-2.8q-2.9,3.8 -6.5,5.5q-3.6,1.7 -8.3,1.7q-7.8,0 -12.9,-5.95q-5.2,-6 -5.2,-15l0,-1.15l37.7,0l0,-3.25q0,-11.35 -5.6,-17.9q-5.7,-6.6 -15.3,-6.6q-6.15,0 -11.4,3.5m-5.2,19.3q1,-8.15 5.5,-13q4.5,-4.85 11.1,-4.85q6.65,0 10.75,4.8q4.1,4.8 4.35,12.4l0,0.65l-31.7,0m-231.9,-34.6q-6.4,-5.5 -17.75,-5.5l-23.1,0l0,71.1l6.05,0l0,-29.65l20.65,0l17.2,29.65l6.4,0l0,-0.65l-17.8,-30.25q6.75,-2 10.75,-7.25q4,-5.2 4,-12q0,-9.9 -6.4,-15.45m-34.8,-0.4l16.95,0q8.65,0 13.4,4.15q4.8,4.15 4.8,11.7q0,6.85 -4.6,11.15q-4.6,4.3 -12.15,4.3l-18.4,0l0,-31.3m235.35,-1.1q-6.95,-4 -15.7,-4l-19.85,0l0,71.1l19.4,0q9.1,0 16.15,-4q6.95,-4 10.8,-11.4q3.9,-7.35 3.9,-16.9l0,-6.5q0,-9.5 -3.9,-16.9q-3.9,-7.45 -10.8,-11.4m-29.55,1.1l13.95,0q10.95,0.05 17.65,7.4q6.65,7.4 6.65,19.65l0,6.3q0,12.7 -6.75,20.1q-6.8,7.45 -18.05,7.45l-13.45,0l0,-60.9m-90.5,21.75l-0.2,-8.6l-5.65,0l0,52.85l5.9,0l0,-36.25q1.9,-6.2 5.85,-9.3q3.95,-3.2 9.45,-3.2q6.55,0 9.75,3.4q3.1,3.3 3.15,10.1l0,35.25l5.85,0l0,-34.95q0.5,-5.7 4.85,-9.7q4.35,-4 10.65,-4.1q6.8,0 9.8,3.45q3,3.4 3.05,10.5l0,34.8l5.85,0l0,-35.25q-0.35,-18.55 -17.35,-18.55q-5.7,0 -10.45,2.7q-4.7,2.6 -7.55,7.55q-3.4,-10.25 -15.9,-10.25q-5.35,0 -9.75,2.4q-4.4,2.4 -7.3,7.15m-21.1,7.2q-0.15,-7.9 -5.2,-12.3q-5.15,-4.45 -14,-4.45q-8.55,0 -14.4,4.65q-5.85,4.55 -5.85,10.85l5.85,0.05q0,-4.4 4,-7.5q4,-3.15 10.1,-3.15q6.7,0 10.25,3.3q3.45,3.2 3.45,8.9l0,6l-10.6,0q-11.5,0 -17.85,4.5q-6.45,4.45 -6.45,12.2q0,6.5 4.7,10.75q4.7,4.25 12.3,4.25q5.35,0 10.15,-2.15q4.7,-2.2 7.8,-6.2q0.25,4.85 1.1,7.35l6.25,0l0,-0.6q-1.6,-3.8 -1.6,-11.45l0,-25m-16.25,10.85l10.45,0l0,11.6q-2.1,4.75 -6.7,7.55q-4.65,2.85 -10.5,2.85q-5.25,0 -8.55,-2.95q-3.3,-2.9 -3.3,-7.35q0,-5.4 4.9,-8.5q4.95,-3.1 13.7,-3.2z" fill="#FFFFFF"/>
  </g>
 </defs>
 <mask id="Mask_Mask_1">
  <g id="svg_8">
   <use x="2" y="2" id="svg_9" xlink:href="#Mask_6_MASK_0_FILL"/>
  </g>
 </mask>
 <g>
  <title>background</title>
  <rect fill="none" id="canvas_background" height="514" width="514" y="-1" x="-1"/>
 </g>
 <g>
  <title>Layer 1</title>
  <rect id="svg_18" height="512" width="512" y="0" x="0" stroke-width="0" stroke="#000" fill="#fff"/>
  <g stroke="null" id="svg_13" mask="url(#Mask_Mask_1)">
   <g stroke="null" id="svg_14">
    <use x="0" y="0" stroke="null" id="svg_15" xlink:href="#Layer5_0_FILL"/>
   </g>
  </g>
 </g>
</svg>